<?xml version="1.0" encoding="UTF-8" standalone="no"?>
<!-- Created with Inkscape (http://www.inkscape.org/) -->

<svg
   xmlns:dc="http://purl.org/dc/elements/1.1/"
   xmlns:cc="http://creativecommons.org/ns#"
   xmlns:rdf="http://www.w3.org/1999/02/22-rdf-syntax-ns#"
   xmlns:svg="http://www.w3.org/2000/svg"
   xmlns="http://www.w3.org/2000/svg"
   xmlns:sodipodi="http://sodipodi.sourceforge.net/DTD/sodipodi-0.dtd"
   xmlns:inkscape="http://www.inkscape.org/namespaces/inkscape"
   width="4648.1729"
   height="4451.0386"
   viewBox="0 0 1229.8291 1177.6706"
   version="1.1"
   id="svg5598"
   inkscape:version="0.92.3 (2405546, 2018-03-11)"
   sodipodi:docname="Typhoon.svg">
  <title
     id="title6199">Typhoon 1</title>
  <defs
     id="defs5592">
    <inkscape:path-effect
       effect="skeletal"
       id="path-effect4629"
       is_visible="true"
       pattern="M 54.654842,309.00983 C 115.80155,313.85756 225.77496,766.17884 177.7603,867.58952 166.76108,890.82073 86.059819,636.26355 70.408642,623.42676 57.822182,613.10358 42.03505,308.00933 54.654842,309.00983 Z"
       copytype="repeated_stretched"
       prop_scale="0.22701581"
       scale_y_rel="false"
       spacing="-20"
       normal_offset="0"
       tang_offset="2.3"
       prop_units="false"
       vertical_pattern="true"
       fuse_tolerance="1.4"
       pattern-nodetypes="ssss" />
    <inkscape:path-effect
       pattern-nodetypes="ssss"
       fuse_tolerance="1.4"
       vertical_pattern="true"
       prop_units="false"
       tang_offset="0"
       normal_offset="0"
       spacing="0"
       scale_y_rel="false"
       prop_scale="0.32030172"
       copytype="repeated_stretched"
       pattern="m 59.503571,294.46363 c 12.65939,-0.001 95.964769,430.50101 84.315599,442.21011 -18.12842,18.2218 -132.914699,11.1107 -148.5658787,-1.7261 C -17.333169,724.62444 46.844181,294.46484 59.503571,294.46363 Z"
       is_visible="true"
       id="path-effect5482"
       effect="skeletal" />
    <filter
       inkscape:collect="always"
       style="color-interpolation-filters:sRGB"
       id="filter6488"
       x="-0.011848748"
       width="1.0236975"
       y="-0.012155164"
       height="1.0243103">
      <feGaussianBlur
         inkscape:collect="always"
         stdDeviation="4.5424859"
         id="feGaussianBlur6490" />
    </filter>
    <filter
       inkscape:collect="always"
       style="color-interpolation-filters:sRGB"
       id="filter6492"
       x="-0.012228246"
       width="1.0244565"
       y="-0.012582095"
       height="1.0251642">
      <feGaussianBlur
         inkscape:collect="always"
         stdDeviation="4.5424859"
         id="feGaussianBlur6494" />
    </filter>
  </defs>
  <sodipodi:namedview
     id="base"
     pagecolor="#ffffff"
     bordercolor="#666666"
     borderopacity="1.0"
     inkscape:pageopacity="0.0"
     inkscape:pageshadow="2"
     inkscape:zoom="0.175"
     inkscape:cx="1774.0276"
     inkscape:cy="2002.2907"
     inkscape:document-units="mm"
     inkscape:current-layer="layer1"
     showgrid="false"
     fit-margin-top="10"
     fit-margin-left="10"
     fit-margin-right="10"
     fit-margin-bottom="10"
     units="px"
     inkscape:window-width="1920"
     inkscape:window-height="1177"
     inkscape:window-x="-8"
     inkscape:window-y="-8"
     inkscape:window-maximized="1" />
  <metadata
     id="metadata5595">
    <rdf:RDF>
      <cc:Work
         rdf:about="">
        <dc:format>image/svg+xml</dc:format>
        <dc:type
           rdf:resource="http://purl.org/dc/dcmitype/StillImage" />
        <dc:title>Typhoon 1</dc:title>
        <dc:rights>
          <cc:Agent>
            <dc:title>Public Domain</dc:title>
          </cc:Agent>
        </dc:rights>
        <dc:creator>
          <cc:Agent>
            <dc:title>Rygle</dc:title>
          </cc:Agent>
        </dc:creator>
        <dc:date>2018-06-19</dc:date>
        <cc:license
           rdf:resource="http://creativecommons.org/publicdomain/zero/1.0/" />
      </cc:Work>
      <cc:License
         rdf:about="http://creativecommons.org/publicdomain/zero/1.0/">
        <cc:permits
           rdf:resource="http://creativecommons.org/ns#Reproduction" />
        <cc:permits
           rdf:resource="http://creativecommons.org/ns#Distribution" />
        <cc:permits
           rdf:resource="http://creativecommons.org/ns#DerivativeWorks" />
      </cc:License>
    </rdf:RDF>
  </metadata>
  <g
     inkscape:label="Layer 1"
     inkscape:groupmode="layer"
     id="layer1"
     transform="translate(516.64075,432.44249)">
    <path
       inkscape:original-d="m -906.21876,352.88208 c -0.4235,-3.91902 2.6841,-7.34276 6.5161,-7.75054 4.5478,-0.48393 8.5182,3.1243 8.9845,7.57286 0.5517,5.26424 -3.6273,9.85716 -8.7786,10.38913 -6.0788,0.62777 -11.3792,-4.20059 -11.9849,-10.15112 -0.7127,-7.00321 4.8528,-13.10593 11.7105,-13.79397 8.0498,-0.80766 15.0606,5.59296 15.8407,13.47815 0.9134,9.23273 -6.4314,17.26921 -15.4782,18.15195 -10.5669,1.03107 -19.7598,-7.3793 -20.7568,-17.73658 -1.1618,-12.0691 8.4488,-22.56344 20.282,-23.6874 13.7573,-1.30673 25.7136,9.65329 26.9785,23.14565 1.4672,15.65133 -11.0074,29.24719 -26.3616,30.66815 -17.7727,1.64476 -33.2041,-12.52695 -34.7977,-29.96708 -1.8408,-20.14469 14.2293,-37.6278 34.0024,-39.4122 22.7928,-2.05691 42.5655,16.13346 44.5604,38.51163 2.2949,25.74462 -18.2598,48.06865 -43.5424,50.29529 -29.03,2.55666 -54.1926,-20.63043 -56.6742,-49.14651 -2.8442,-32.68116 23.2696,-60.99735 55.3799,-63.75924 36.7332,-3.15952 68.5481,26.20342 71.6175,62.30348 3.505,41.2239 -29.46,76.91488 -69.9826,80.32132 -46.1939,3.8832 -86.1735,-33.06992 -89.9489,-78.48803 -4.2966,-51.68739 37.066,-96.40565 87.8962,-100.58453 57.7515,-4.7479 107.6992,41.4838 112.3187,98.28947 5.2402,64.4371 -46.3614,120.14861 -109.7563,125.249 -71.799,5.77654 -133.85574,-51.74014 -139.48014,-122.39201 -6.3603,-79.89619 57.66404,-148.92965 136.29904,-155.12461 88.7915,-6.9951 165.4875,64.1806 172.303,151.58711 7.6846,98.55266 -71.3408,183.65499 -168.3743,191.14475 -109.25214,8.43289 -203.56654,-79.19939 -211.78824,-186.78696 -9.2441,-120.96747 87.8148,-225.36608 206.96044,-234.38151 133.7816,-10.1229 249.2077,97.24969 259.0831,229.03927 11.0739,147.78322 -107.5712,275.25588 -253.1786,286.06228 -163.06694,12.10217 -303.68624,-118.85081 -315.49954,-279.54354 -13.2131,-179.73379 131.1652,-334.686458 308.31084,-347.5877677 197.8914,-14.41219 368.4562,144.5958677 382.5322,339.6686577 15.7055,217.65473 -159.23,405.20851 -373.8179,420.55181 -239.14574,17.0993 -445.16994,-175.16035 -461.87944,-410.97224 -17.351,-244.8649 166.2653,-462.37062 405.77984,-501.45658"
       inkscape:path-effect="#path-effect5482"
       inkscape:connector-curvature="0"
       id="path5480"
       d="m -909.33189,353.21849 c 0.19009,-0.0205 0.1368,-1.67597 1.23483,-3.95433 1.005,-2.08535 3.69672,-5.4022 8.24363,-5.54951 4.09651,0.004 9.2251,3.36592 9.35111,8.96711 0,0 0,2e-5 0,2e-5 0.0478,2.42614 -0.9404,4.9282 -2.77981,6.72082 -1.64601,1.60518 -3.95611,2.6475 -6.31925,2.67786 -2.48978,0.0493 -5.05154,-1.02513 -6.83351,-2.87273 -1.65918,-1.71567 -2.71061,-4.12887 -2.71695,-6.50245 -0.047,-2.55884 1.11614,-5.21395 3.00597,-7.01411 1.79729,-1.72039 4.33804,-2.79648 6.75263,-2.77617 2.64254,-0.0433 5.41974,1.218 7.25804,3.17343 1.79344,1.89402 2.90632,4.58782 2.85713,7.06721 0.039,2.74521 -1.33318,5.67295 -3.37424,7.56663 -2.00822,1.88133 -4.88259,3.04213 -7.44858,2.96195 -2.87023,0.035 -5.97835,-1.46356 -7.94428,-3.60921 -1.9871,-2.1425 -3.20711,-5.22764 -3.09411,-7.90192 -0.0319,-3.02197 1.61118,-6.3433 3.88033,-8.39912 2.30032,-2.11483 5.63011,-3.40584 8.43556,-3.25887 3.20654,-0.0305 6.77816,1.7786 8.94314,4.19022 2.27078,2.48685 3.64534,6.10019 3.46475,9.06145 0.0327,3.43428 -1.96959,7.29955 -4.54179,9.59523 -2.71111,2.46614 -6.65424,3.93694 -9.7974,3.7263 -3.72528,0.0418 -7.93727,-2.19141 -10.38699,-4.93686 -2.72556,-2.99258 -4.30163,-7.32434 -4.07281,-10.6726 -0.0667,-4.13104 2.46576,-8.76001 5.37131,-11.38144 3.39471,-3.12742 8.20478,-4.78902 11.74204,-4.5814 4.88557,-0.14296 10.04811,2.92988 12.75907,5.7925 4.41654,4.57875 5.64568,10.32457 5.72991,13.14151 0.30052,2.67297 -0.0808,4.57156 0.13396,5.09277 0.96183,2.33457 3.64832,5.16774 7.15782,7.88514 3.54597,2.74564 8.12665,5.49325 13.17139,7.11687 5.09156,1.63869 10.55258,2.08967 15.60264,0.5696 4.99824,-1.50447 9.25835,-4.9092 11.21901,-9.88181 0.36214,-0.91847 1.5549,-6.59281 0.9527,-15.08261 -1.04875,-11.39953 -5.98077,-29.58775 -22.89964,-44.09044 -11.57885,-9.90511 -28.2574,-16.86613 -47.8374,-14.98474 -14.75799,1.73984 -28.9856,8.75096 -39.42884,21.12637 -9.6232,11.42442 -14.80178,26.58641 -13.16097,42.8859 1.67915,13.66861 8.29312,26.11612 18.96097,35.05739 10.4551,8.74788 24.02417,13.05755 38.1922,11.59048 12.31639,-1.55206 23.27015,-7.56715 31.05903,-16.90529 7.8317,-9.40496 11.5091,-21.47486 10.19432,-33.88655 -1.41367,-10.98965 -6.81563,-20.62785 -15.01451,-27.43803 -8.39577,-6.96274 -19.09151,-10.12546 -29.9795,-8.94784 -9.75291,1.27825 -18.22072,6.09821 -24.17545,13.2957 -6.16278,7.46015 -8.88791,16.90971 -7.83453,26.45329 1.15079,8.62237 5.43356,16.04608 11.74268,21.24494 6.60629,5.43602 14.93201,7.78114 23.28075,6.84033 7.59911,-1.033 14.09054,-4.82689 18.61786,-10.34449 4.78058,-5.83404 6.79127,-13.14973 5.95231,-20.43198 -0.92556,-6.67849 -4.27846,-12.33667 -9.08854,-16.2648 -5.13974,-4.19224 -11.54951,-5.9052 -17.87585,-5.1583 -5.85393,0.82853 -10.76612,3.78661 -14.15695,7.96183 -3.66629,4.51938 -5.11001,10.11773 -4.44624,15.58165 0.74223,5.11897 3.35028,9.36046 6.95157,12.26494 3.96982,3.19871 8.84186,4.39186 13.51755,3.80304 4.47003,-0.66755 8.10262,-2.97144 10.55778,-6.04518 2.78934,-3.49461 3.73311,-7.71813 3.21225,-11.64957 0,0 -1e-5,-3e-5 -1e-5,-3e-5 -1.56025,-9.12085 -9.52288,-12.23019 -15.16461,-11.63579 -6.18416,1.12669 -8.56453,5.81332 -9.19366,8.32304 -0.72868,2.90681 0.009,4.42819 0.0602,4.42265 z m 52.74073,22.7495 c -0.38828,-0.17618 -2.78581,4.80734 -9.46738,11.06976 -6.4016,5.99784 -18.02797,13.53905 -33.15156,13.67071 -11.75337,0.13119 -25.05099,-4.54422 -34.90824,-14.67452 -8.27775,-8.49565 -13.91059,-20.66873 -14.00732,-33.24518 -0.22624,-12.90078 5.41137,-26.2017 14.90458,-35.43327 9.12631,-8.90008 21.85326,-14.28219 34.03053,-14.32291 6.99852,-0.0828 13.97087,1.37018 20.16529,4.08562 6.1273,2.6582 11.66742,6.61451 16.23327,11.2853 9.68322,9.91577 14.84511,23.37398 14.87278,35.22258 0.10639,7.51635 -1.49806,14.75978 -4.17476,20.93903 -2.86728,6.71169 -7.12067,12.49779 -11.69156,17.0545 -13.62839,13.57049 -29.91403,16.12207 -36.94675,16.55846 -3.83762,0.28485 -6.24748,0.23435 -6.9081,0.48994 -6.33165,2.44963 -11.42849,12.25727 -12.21284,22.79538 -0.7923,10.64483 3.33393,21.96438 12.52047,24.8136 0.84981,0.26357 4.7348,0.59542 10.65727,0.16028 13.84366,-1.10178 43.38377,-7.27547 66.71745,-34.79963 7.61331,-8.98079 14.15633,-20.01672 18.3123,-32.8628 3.83913,-11.96838 5.35438,-25.10932 3.82293,-38.55792 -2.63906,-22.13047 -13.57475,-43.23597 -31.58305,-58.20132 -8.40277,-6.98238 -18.17501,-12.38667 -28.81206,-15.73407 -10.87296,-3.39436 -22.3181,-4.43652 -33.53819,-3.07658 -20.15675,2.53958 -37.9909,12.81416 -50.13777,27.62371 -12.78711,15.60187 -18.08033,35.26998 -15.83615,53.66621 2.38254,17.97583 11.84637,32.88463 23.86079,42.57103 14.3821,11.58964 31.47352,14.88148 45.48039,12.96765 17.94729,-2.59209 29.52456,-13.09979 35.13925,-20.5165 6.03731,-7.97523 6.73437,-13.51459 6.65843,-13.54906 z m -64.03752,58.31668 c 0.0737,-0.39042 -4.3235,-1.58038 -11.53038,-4.94686 -7.11728,-3.32642 -17.01479,-9.02852 -26.47273,-18.85122 -12.3569,-12.83419 -23.69848,-33.16621 -23.92788,-57.16601 -0.1325,-11.1851 2.04983,-22.77434 6.74454,-33.582 4.28694,-9.90342 10.63047,-19.07835 18.529,-26.82237 15.56286,-15.25253 37.03103,-24.30977 57.77709,-24.50672 12.03366,-0.1818 23.79767,2.2932 34.16066,6.75773 10.69604,4.57585 20.03227,11.28953 27.55423,18.87067 19.29142,19.45551 25.46072,43.39315 25.90961,59.40085 0.59544,16.49627 -2.9282,26.7087 -2.72173,28.35821 0.57151,4.56602 3.79033,8.51677 8.42667,11.61875 4.58115,3.06802 10.54194,5.26017 16.63585,5.89649 8.9271,0.93031 17.86845,-1.65718 21.59519,-8.0139 0.64594,-1.10177 5.72635,-17.7452 3.37023,-41.70658 -2.64817,-25.77722 -14.73045,-60.08149 -45.91949,-86.20177 -11.99101,-10.04133 -26.32472,-18.25388 -42.42207,-23.36225 -15.69993,-4.95334 -32.54548,-6.65405 -49.30608,-4.66579 -29.51605,3.60756 -56.05251,18.73002 -74.03457,40.67501 -9.06858,11.0684 -15.69888,23.58304 -19.67864,36.59959 -4.34122,14.26304 -5.28272,28.70014 -3.53972,42.0905 3.83233,28.89006 19.88073,50.04132 35.18597,62.13118 11.70073,9.24157 23.16445,13.64828 30.99678,15.70888 8.03252,2.10873 12.61911,1.97374 12.66747,1.71761 z m 128.74031,-34.61797 c -0.74053,-0.27082 -7.13033,16.97453 -26.74251,35.80153 -17.31305,16.61924 -45.69217,33.19678 -80.18859,33.53303 -15.74772,0.18635 -31.93483,-2.90013 -46.96139,-9.405 -14.06376,-6.06888 -26.87537,-14.99358 -37.58101,-25.8664 -22.86543,-23.23041 -34.20193,-53.82192 -34.60313,-80.90987 0,0 1e-4,-2e-5 1e-4,-2e-5 -0.3672,-18.39136 3.6558,-34.86381 9.0988,-47.94054 8.6035,-20.80006 21.64662,-34.97316 25.50792,-39.56962 1.12881,-1.34393 1.81868,-2.21978 2.00815,-2.66044 3.25208,-7.56386 -1.50919,-17.37003 -9.49653,-24.41564 -8.00491,-7.06109 -19.15894,-10.87615 -26.53744,-6.70892 -0.3447,0.19463 -0.9991,0.75525 -1.9171,1.66388 -4.8367,4.78558 -22.3466,24.60609 -32.7843,56.30882 -6.1802,18.86381 -9.6447,41.69487 -6.863,66.58502 0,0 0,4e-5 0,4e-5 4.2937,37.33614 22.9454,74.60419 54.8211,100.90906 14.80324,12.21471 31.75637,21.39496 49.70181,26.94316 19.23286,5.92415 38.85788,7.33336 57.21049,5.00905 40.30569,-5.18872 69.08665,-27.80472 84.91447,-47.831 18.42419,-23.31358 20.27976,-41.49457 20.41216,-41.44614 z M -992.63023,235.91475 c 0.41324,0.45512 8.69022,-6.36142 24.3704,-14.35167 15.64122,-7.97039 39.13912,-16.77935 67.30306,-16.99427 19.33067,-0.16916 40.01385,3.50136 59.81225,12.0914 17.68082,7.65521 34.00666,18.91755 47.78525,32.91971 29.4659,29.95154 43.44218,68.90578 44.01682,102.85214 0.52727,25.00708 -5.30121,46.03494 -11.32374,60.88704 -6.68497,16.57044 -13.2546,26.0061 -13.62537,27.76538 -1.76078,8.35471 5.09994,16.84352 14.45345,21.93861 9.3715,5.10489 21.05337,6.4196 27.26424,1.02312 1.07275,-0.93208 9.5445,-13.74587 16.63499,-34.74634 6.75188,-20.07986 12.10059,-47.88241 8.55149,-80.13924 -4.99284,-44.2656 -27.08754,-89.64213 -66.1023,-121.79046 -18.0901,-14.90472 -38.59037,-25.85606 -59.91545,-32.41281 -23.909,-7.3307 -47.58795,-8.63951 -68.77319,-5.89429 -30.94018,4.05427 -54.55879,16.78885 -69.26795,27.34156 -14.9169,10.70175 -21.39314,19.27971 -21.18395,19.51012 z m 235.0477,228.97285 c -0.44847,-0.31293 -5.73916,6.2111 -16.11885,15.94286 -12.09714,11.34216 -31.14289,26.55924 -57.60575,37.66921 -19.65455,8.25111 -42.49242,13.75688 -66.8705,14.01739 -24.6494,0.27995 -49.57529,-4.60774 -72.47872,-14.47332 -22.6438,-9.72875 -42.28735,-23.79675 -58.15785,-39.77868 -18.6371,-18.78065 -31.1384,-39.21392 -39.1989,-57.39312 -13.0956,-29.54062 -14.6168,-51.44734 -15.8096,-53.68402 -4.0743,-7.64001 -14.8113,-9.61918 -25.2261,-7.41857 -10.4372,2.20535 -20.1703,8.7636 -21.4538,16.78653 -0.2813,1.75834 3.1806,30.44392 21.7253,64.87127 11.7589,21.82908 29.2153,45.35622 53.8823,65.92984 20.9139,17.45586 45.8574,31.6646 73.61432,40.36664 28.09862,8.78434 57.2136,11.17073 84.87658,7.77038 27.43573,-3.38718 51.74622,-12.43695 71.72638,-23.86661 26.78098,-15.32068 44.50174,-33.98152 54.83921,-47.33745 8.96042,-11.5739 12.5657,-19.18621 12.25598,-19.40235 z M -1111.974,359.81724 c 0.2401,-0.0236 0.3774,-1.5648 0.5336,-4.4394 0,0 0,-10e-6 0,-10e-6 0.2963,-5.43617 0.6924,-17.40682 3.0045,-31.97949 2.3776,-14.98518 6.8407,-33.36621 15.4483,-52.93992 10.2344,-23.29014 25.6324,-46.74953 46.8094,-67.49237 19.3827,-18.97936 42.2418,-34.30713 66.95668,-44.91239 26.70735,-11.45882 53.74084,-16.6042 78.47215,-17.07999 40.043,-0.81707 70.81501,9.92418 85.8291,15.60309 6.13837,2.31318 9.68862,3.78772 10.78738,3.86613 8.84206,0.63103 16.09077,-7.53089 19.6156,-17.57599 3.52843,-10.05535 3.04217,-21.76214 -2.9497,-27.01847 -0.72495,-0.63595 -4.6316,-2.49151 -11.08271,-4.83902 -8.87628,-3.22023 -23.09552,-7.53102 -41.12183,-10.33127 -18.17749,-2.823733 -40.04007,-4.085297 -64.23627,-1.44544 -29.76388,3.26911 -60.89433,12.43808 -90.42029,28.8189 -27.19731,15.0898 -51.01941,35.13258 -70.15161,58.49085 -20.864,25.46065 -34.5106,52.92165 -42.3483,78.95252 -6.5797,21.88625 -8.6889,41.69577 -8.8987,57.33099 -0.2068,15.41181 1.4361,27.16711 2.5128,32.6874 0,0 0,1e-5 0,1e-5 0.5551,2.84454 1.014,4.32605 1.2399,4.30387 z m 328.93311,-219.47539 c -0.21916,0.45651 5.92045,4.12904 16.00354,11.27633 10.11159,7.16747 24.01047,17.88826 38.5526,32.98047 18.84895,19.56369 37.4851,45.16417 50.88314,76.77076 0,2e-5 1e-5,2e-5 1e-5,3e-5 11.97312,28.24701 18.64611,58.8998 19.06411,89.64755 0,10e-6 0,2e-5 -10e-6,3e-5 0.5286,36.74628 -7.46835,70.00526 -18.93099,97.22389 -9.16299,21.81849 -20.11695,38.92826 -28.61117,50.82898 -8.51252,11.92637 -14.51692,18.84258 -15.09396,20.36267 -3.19877,8.42634 2.66894,17.65443 11.34321,23.81943 8.6845,6.17226 20.05465,8.98051 26.71708,4.81378 1.21964,-0.76278 8.51813,-9.17323 17.57624,-23.44767 9.1882,-14.47942 20.37291,-35.3504 28.92863,-61.67216 10.80141,-33.31796 16.26327,-72.60713 11.43856,-114.42926 -10e-6,0 0,-3e-5 0,-3e-5 -4.05877,-35.01637 -15.20968,-68.25174 -31.69647,-97.573 0,0 -2e-5,-3e-5 -2e-5,-3e-5 -18.36897,-32.66684 -41.50915,-57.47356 -63.63784,-75.22925 -34.50483,-27.69361 -62.43981,-35.57424 -62.53666,-35.37252 z m 75.22924,405.028 c -0.0959,-0.0854 -0.50734,0.15268 -1.21868,0.6876 -3.19949,2.40609 -12.37141,10.98343 -27.11414,21.84777 -14.88582,10.96979 -35.01747,23.78254 -60.27879,34.37466 -29.82448,12.50503 -64.24785,20.73358 -100.87407,21.14438 -39.44731,0.46512 -76.72988,-7.81062 -108.98837,-21.53708 -44.4156,-18.85731 -74.0587,-45.51607 -88.3864,-58.89539 -5.468,-5.10914 -8.624,-8.2026 -9.6866,-8.72745 -8.1663,-4.03358 -17.8738,1.0071 -24.7804,9.1023 -6.9128,8.10232 -10.7366,19.16079 -7.2618,26.12251 0.4554,0.9125 3.7082,4.39401 9.3518,9.47801 8.0752,7.27852 21.5171,18.23909 39.5881,29.43736 18.2511,11.30986 40.9137,22.67771 67.5653,31.23566 38.48254,12.32919 81.24512,17.25959 124.70257,12.13644 40.33575,-4.77277 76.3555,-17.92709 106.12827,-34.84182 25.15135,-14.28989 44.25158,-30.26901 57.67451,-43.53991 13.09992,-12.95155 21.11422,-23.66266 23.01543,-26.74814 0.46713,-0.758 0.65842,-1.19211 0.56327,-1.2769 z m -423.61505,-0.17926 c 0.424,-0.39866 -5.4309,-7.77033 -14.2798,-21.02162 -8.9055,-13.33605 -20.4808,-32.42904 -30.6115,-56.71721 -13.4221,-32.17965 -22.9031,-70.38566 -23.3446,-111.96336 -0.4892,-43.99298 8.8047,-85.27666 23.8921,-120.77629 12.3687,-29.16204 27.4994,-51.99961 39.7477,-68.21539 12.1575,-16.0954 20.9879,-25.4013 21.7539,-27.20849 0.6893,-1.62626 1.0383,-3.26909 1.095,-4.91419 0.4352,-12.51584 -16.1433,-25.58523 -29.5147,-26.58692 0,0 0,0 0,0 -3.268,-0.24463 -6.277,0.24436 -8.6484,1.60223 -1.4299,0.81878 -11.709,12.01361 -24.175,30.89945 -12.7503,19.3165 -27.6394,46.52357 -38.6062,80.57593 -13.4487,41.84488 -19.0109,88.73742 -13.3679,136.66911 5.3424,45.22713 20.2128,84.7218 38.263,116.38893 13.6028,23.86358 28.1062,41.81549 39.1096,53.75681 10.9897,11.9266 18.3501,17.8275 18.6868,17.51101 z m 4.6174,-432.27804 c 0.5024,0.47128 10.1683,-8.49006 27.5348,-21.309105 17.6526,-13.030305 42.3779,-29.024217 73.9773,-42.285026 37.12537,-15.579422 79.01327,-25.274035 122.81096,-25.804755 52.55123,-0.665647 97.91264,11.343424 132.62073,25.814238 32.72241,13.614162 52.56167,27.234865 55.23939,27.827287 9.01274,1.994008 17.16456,-5.314837 21.84844,-14.867409 4.68711,-9.559165 5.68473,-21.209179 0.71138,-27.067082 -1.29947,-1.53059 -25.22756,-16.367583 -62.34433,-28.6227335 -40.71293,-13.4154274 -92.71548,-21.9607865 -150.42489,-15.3418415 -47.93185,5.5169185 -91.64794,20.969707 -128.58068,41.849216 -31.318,17.706226 -54.691,37.481013 -70.485,53.162526 -15.6401,15.528625 -23.274,26.301335 -22.9081,26.644685 z m 435.79562,-52.959231 c -0.507,0.798696 19.93892,15.126632 45.82602,42.148021 26.8069,27.98285 55.09849,65.87093 75.65062,114.28568 19.18787,45.20246 27.87777,91.06499 28.62536,133.51453 0.55372,30.29373 -2.79254,55.97413 -6.2229,74.95584 -3.3987,18.80655 -6.59769,30.46418 -6.44163,32.36528 0.75736,9.22653 10.16168,14.83775 20.6709,16.47389 10.51727,1.6374 21.93751,-0.86192 26.05865,-7.3222 0.8792,-1.37823 4.40535,-14.91531 6.88973,-35.86273 2.53819,-21.40105 3.92229,-50.22523 0.33897,-83.58974 -5.10264,-47.30828 -19.75305,-96.49657 -45.52658,-142.734 -27.40216,-49.15604 -61.81752,-85.34538 -92.76205,-110.162201 -30.14179,-24.177255 -52.83112,-34.507052 -53.10709,-34.07237 z m 160.86096,414.734441 c -0.63277,-0.17115 -4.61728,11.05889 -12.8424,29.02421 -7.17336,15.66853 -17.36237,35.62077 -31.9582,57.59402 -14.6582,22.06717 -32.70576,44.57369 -54.67106,66.03932 -37.53538,36.67485 -79.96808,63.97416 -122.83653,82.5502 -29.41494,12.74587 -55.75011,19.95316 -75.8385,24.38624 -19.82149,4.37419 -32.5918,6.01583 -34.34661,6.92444 -8.24963,4.27153 -9.76899,15.11826 -7.20118,25.43696 2.56972,10.32636 9.29364,19.88494 16.81611,21.19334 1.66353,0.28934 16.30733,-1.83069 37.69736,-7.96363 21.91693,-6.28401 50.2892,-16.62809 81.12203,-33.44117 45.19921,-24.64893 87.97235,-58.90366 123.46004,-102.05567 20.70431,-25.16895 36.84061,-50.8866 49.15526,-75.43726 12.24849,-24.41875 19.97984,-46.2117 24.81207,-62.97686 5.56354,-19.31268 7.12091,-31.14177 6.63161,-31.27414 z M -869.693,769.56433 c -0.0899,-0.66541 -9.33904,-0.15946 -25.13894,-0.38203 -17.77245,-0.25044 -42.8047,-1.44441 -72.44757,-6.67264 -29.86416,-5.26726 -61.88879,-14.19067 -94.29679,-28.28909 -54.6221,-23.74183 -99.1189,-57.02666 -133.531,-91.44676 -35.3643,-35.38434 -54.4813,-65.80544 -57.234,-67.80484 -7.5831,-5.50801 -17.9442,-1.92874 -25.9753,5.0396 -8.0358,6.97239 -13.5255,17.28727 -11.3434,24.54093 0.7575,2.51811 24.3099,35.49483 65.5527,70.33336 40.8101,34.48569 92.6573,65.60257 153.3675,84.59374 35.8918,11.21485 70.4578,16.68862 101.79885,18.36169 31.06179,1.65816 56.78357,-0.53553 74.50808,-3.07463 15.83291,-2.26968 24.8047,-4.71907 24.73987,-5.19933 z m -411.1574,-188.09289 c 0.7956,-0.55027 -12.8829,-22.64431 -27.6767,-58.62409 -18.3668,-44.67006 -33.5644,-101.2406 -34.2295,-165.79081 -0.3603,-33.70863 3.1678,-65.60812 9.1895,-94.96529 5.9949,-29.22643 14.0004,-53.72107 21.279,-72.84402 8.6123,-22.65544 15.5241,-36.67164 15.756,-38.85936 0.99,-9.33788 -7.2939,-16.51481 -17.3442,-19.98034 -10.0551,-3.46714 -21.7291,-3.06495 -26.914,2.43425 -1.2378,1.31283 -8.4941,16.9767 -16.0647,41.51945 -6.6044,21.43657 -13.2024,49.03604 -16.8586,81.42826 -3.6737,32.54815 -4.0909,67.41599 0.02,103.45926 3.7923,33.16266 11.2404,64.70275 21.3303,93.96893 10.0618,29.18466 22.0761,54.16373 33.8041,74.63451 19.8552,34.65501 37.2258,53.95354 37.7092,53.61925 z m -35.56,-452.52525 c 0.6171,0.29173 7.0358,-10.88171 18.912,-28.50888 12.1062,-17.968525 29.1876,-41.245864 52.4732,-66.078905 37.8748,-40.3888008 83.5995,-75.746114 135.8873,-102.549192 38.4956,-19.732286 74.0277,-31.450472 102.6588,-38.821453 27.87085,-7.17528 46.51592,-9.79202 48.65141,-10.9516 8.25194,-4.4808 9.46351,-15.37681 6.61661,-25.62095 -2.84859,-10.25018 -9.80412,-19.63572 -17.27438,-20.78624 -1.97573,-0.30429 -22.96067,3.3602 -52.38774,13.23066 -30.5155,10.23558 -67.8111,26.38018 -106.7875,51.391331 -53.0344,34.032919 -97.2027,76.655976 -131.2199,122.74898 -20.8683,28.272119 -35.2699,54.302089 -44.6932,74.005791 -9.3004,19.446598 -13.3388,31.703028 -12.8366,31.940458 z"
       style="fill:#ff0000;stroke:#ff0000;stroke-width:12.39999962;stroke-linecap:round;filter:url(#filter6488)"
       inkscape:transform-center-x="-25.078343"
       inkscape:transform-center-y="-31.454925"
       transform="rotate(75.312743,-318.72706,904.88725)" />
    <path
       style="fill:#ffff00;stroke:#ff8a00;stroke-width:4;stroke-linecap:round;filter:url(#filter6492)"
       d="m -924.92413,361.444 c 0.64458,-0.46167 1.68755,-3.05222 4.36677,-6.09775 2.59045,-2.94461 7.22595,-6.60092 14.78976,-7.09775 9.04363,0.48898 18.5637,5.92885 19.42308,18.03546 0,0 0,3e-5 0,3e-5 0.0784,4.96053 -1.6362,9.71136 -5.23302,13.33263 -3.12455,3.12692 -7.30487,5.09927 -12.01526,5.31163 -4.87963,0.0973 -9.50628,-1.66573 -12.95768,-5.09666 0,0 -2e-5,-3e-5 -2e-5,-3e-5 -3.10328,-3.09943 -5.0145,-7.25669 -5.19912,-11.79139 -0.10371,-4.81218 1.70677,-9.39389 5.05705,-12.75023 3.09884,-3.09397 7.28005,-4.98016 11.71744,-5.13591 4.77843,-0.10718 9.37506,1.76204 12.68571,5.08406 3.10931,3.12608 4.99831,7.37657 5.12627,11.77482 0.11147,4.78596 -1.83217,9.4534 -5.16805,12.76103 -3.18382,3.15542 -7.55081,5.07358 -11.96274,5.17618 -4.84126,0.11904 -9.63732,-1.91758 -12.98444,-5.30676 -3.23838,-3.27554 -5.21363,-7.81054 -5.29488,-12.29017 -0.132,-4.95241 2.01885,-9.94091 5.50189,-13.37386 3.40627,-3.3659 8.16763,-5.42971 12.77448,-5.49566 5.13031,-0.15281 10.38458,2.1367 13.95667,5.75768 3.5484,3.58294 5.73791,8.63858 5.79768,13.44149 0.1849,5.39053 -2.27171,10.99781 -6.08025,14.773 0,0 -2e-5,2e-5 -2e-5,2e-5 -3.81541,3.80091 -9.24663,6.16151 -14.32813,6.22899 -5.75602,0.23359 -11.82374,-2.424 -15.88157,-6.477 -4.14668,-4.11828 -6.73585,-10.02576 -6.83317,-15.48809 0,0 0,-3e-5 0,-3e-5 -0.30803,-6.26337 2.59278,-12.92938 6.95557,-17.37263 4.51516,-4.62547 11.02928,-7.51909 17.0023,-7.68371 6.97868,-0.42657 14.43094,2.77518 19.3981,7.51872 5.318,5.05122 8.62092,12.35502 8.92409,19.0051 0.63519,8.05192 -2.96655,16.57512 -8.13997,22.25926 -5.84912,6.45298 -14.25117,10.312 -21.75597,10.92452 0,0 -2e-5,-1e-5 -2e-5,-1e-5 -10.05898,1.11775 -20.21408,-3.2191 -26.81088,-8.56864 -8.328,-6.74423 -12.8048,-15.81663 -14.92955,-22.54707 -0.36306,-1.15006 -1.64791,-2.12735 -0.8823,4.59532 0.5769,5.06562 3.0306,14.64345 11.01962,23.37357 6.81542,7.46889 18.54001,14.5112 32.60295,14.49937 10.72947,0.0566 22.47732,-4.27831 31.41445,-12.86957 8.63678,-8.29886 14.12991,-20.42041 13.98642,-33.13803 -0.15614,-11.75292 -5.18733,-23.10641 -13.25475,-31.34632 -9.21147,-9.39737 -21.61981,-13.91187 -33.38144,-13.7547 0,0 -2e-5,10e-6 -2e-5,10e-6 -13.86728,0.31042 -24.74966,6.84141 -31.49536,13.3848 -7.17644,6.98037 -10.46603,14.92857 -11.19856,16.30572 -0.4809,0.90411 -3.28675,7.68332 -2.78427,17.54608 0.59124,8.87353 4.19802,20.98926 14.87291,30.75589 7.94309,7.24983 19.58298,12.47823 33.25283,11.56832 10.51408,-0.89374 20.9189,-5.60967 28.7234,-14.26367 7.2773,-8.09006 11.48838,-19.12063 10.64057,-31.20135 -0.92758,-10.1937 -5.57567,-19.73296 -13.43327,-26.7683 -7.77192,-6.93953 -18.11174,-10.63388 -29.19828,-9.83278 -9.68125,0.92292 -18.49131,5.36469 -24.94785,12.61453 -6.55026,7.37664 -9.8651,17.04801 -9.10658,27.325 0.90618,9.14594 5.11483,17.30804 11.84388,23.27336 6.97838,6.16719 16.0265,9.16906 25.59759,8.45 8.63164,-0.88524 16.21035,-4.86424 21.74197,-11.13059 5.80782,-6.6008 8.53769,-15.07662 7.85504,-24.01506 -0.86365,-8.15362 -4.62786,-15.20387 -10.47565,-20.34465 -6.25332,-5.4786 -14.20802,-7.96373 -22.5691,-7.31457 -7.71864,0.8433 -14.28735,4.4134 -19.06981,9.87667 -5.18326,5.94209 -7.43963,13.42568 -6.82139,21.24814 0.82623,7.33278 4.22857,13.4581 9.32996,17.90334 5.67526,4.92746 12.73747,6.95612 20.03725,6.36656 7.01007,-0.81539 12.71739,-4.08816 16.82724,-8.83073 4.72999,-5.47816 6.49844,-12.17644 5.93725,-18.91709 -2.38412,-16.25466 -15.29683,-21.56662 -26.23012,-21.31137 -9.75382,1.50312 -14.44063,7.05377 -16.52314,10.74651 -2.41108,4.27537 -2.05113,6.27798 -2.21356,6.39432 z m -40.86477,37.13369 c 1.1152,-1.65418 -4.15513,-12.10412 -3.66564,-29.80853 0.50348,-13.9476 5.60818,-32.14184 20.58509,-46.42597 10.83472,-10.32474 26.44821,-17.94799 43.67773,-18.1629 8.61323,-0.1072 17.44035,1.5611 25.65876,5.09779 7.54043,3.24169 14.53166,8.01742 20.45918,14.00509 11.31509,11.43175 18.60556,27.46444 18.97539,43.81188 0.22987,8.94784 -1.4443,17.97581 -4.87568,26.22093 -3.27581,7.90558 -8.17436,15.159 -14.17983,21.26256 -12.09445,12.28765 -28.95408,19.7802 -45.40113,20.35067 -9.53067,0.38029 -19.05345,-1.30834 -27.6369,-4.72192 -8.55736,-3.38048 -16.33705,-8.51904 -22.84211,-14.68097 -14.04705,-13.31076 -21.93752,-31.60222 -22.97577,-48.44081 -0.72624,-10.75602 0.96189,-21.2143 4.21695,-30.37584 3.57404,-10.13454 9.13747,-18.96193 15.20517,-26.09176 11.56064,-13.58479 25.47261,-21.33442 35.14612,-25.8414 1.5816,-0.73688 1.4384,-2.13185 -8.39354,0.71065 -7.9827,2.30787 -21.02798,7.71012 -33.37609,19.2386 -7.64619,7.14075 -14.91155,16.49851 -20.06686,27.93061 -4.82839,10.69221 -7.61876,22.91367 -7.5798,35.6634 0.0656,23.22881 10.06121,45.39809 25.35277,61.24266 8.81752,9.13797 18.76919,15.64503 28.50918,19.9677 15.57716,6.89406 29.48004,7.65065 36.32827,7.85119 2.34272,0.0595 3.79211,0.0516 4.68722,0.12362 1.24042,0.0998 8.93179,-0.34042 19.14225,-3.807 10.37152,-3.52127 24.37556,-10.55881 36.7535,-23.97241 7.14517,-7.74143 13.57252,-17.49848 17.86913,-29.11692 -10e-6,0 0,-2e-5 0,-2e-5 3.95675,-10.76027 5.87751,-22.79759 4.98047,-35.28743 -1.58892,-20.83017 -11.18061,-41.15486 -27.52185,-55.93582 -7.85308,-7.10467 -17.05666,-12.67496 -27.10062,-16.30095 -10.59818,-3.79992 -21.75851,-5.22118 -32.66338,-4.35762 -21.17477,1.78502 -39.16471,12.05898 -51.307,25.6875 -15.98845,17.9728 -19.75635,39.20142 -18.40093,54.94444 2.11561,21.32806 10.94462,28.47041 10.43995,29.21898 z m 12.77466,-131.03064 c 2.11755,1.59101 19.03383,-7.00154 46.85881,-6.45734 12.83683,0.27769 27.74238,2.78476 42.71951,9.50748 10e-6,10e-6 2e-5,10e-6 3e-5,10e-6 11.85419,5.32552 23.46788,13.15013 33.61588,23.58954 17.67372,18.18146 30.28103,44.26503 30.85412,72.35332 0.32001,14.51682 -2.39051,29.25148 -8.0474,42.84495 -5.35524,12.90199 -13.31083,24.73637 -23.09359,34.72005 -20.00743,20.414 -47.47382,32.40287 -74.03529,33.5513 -15.85805,0.74275 -31.36823,-1.99122 -45.15743,-7.25835 -14.58435,-5.54546 -27.36288,-13.91584 -37.79754,-23.36924 0,0 -2e-5,-3e-5 -2e-5,-3e-5 -14.53724,-13.1715 -24.46984,-28.6004 -30.90304,-42.60915 -6.4797,-14.10985 -9.488,-26.82547 -11.289,-36.5379 -0.067,-0.3546 -0.1315,-0.70545 -0.1952,-1.05236 -0.3961,-2.15703 -0.8138,-1.88604 -1.1584,1.16011 0,0 0,0 0,10e-6 -0.5796,4.96315 -0.8465,17.94946 3.735,34.60452 4.6642,16.95574 14.1537,36.85275 30.88244,54.43634 11.46178,12.0467 25.42807,22.11626 41.13125,29.1187 17.48972,7.79579 35.59271,11.0429 52.32141,11.01487 15.7164,-0.0486 29.15808,-3.11244 39.0651,-6.22866 5.98636,-1.883 12.14979,-4.86142 18.13615,-6.74441 1.46177,-0.45975 16.93839,-7.94893 32.57307,-24.6522 9.75149,-10.41655 19.79317,-24.66724 26.56412,-42.78857 5.78398,-15.53743 8.78547,-33.25191 7.50917,-51.856 -2.26602,-31.59203 -17.08742,-61.4716 -40.47813,-82.62768 -12.10097,-10.94607 -25.80632,-18.92233 -39.87916,-23.97801 -17.0812,-6.10794 -33.65421,-7.46091 -47.81893,-6.27119 -31.9941,2.80059 -45.30932,16.13368 -46.11293,15.52989 z m -101.08636,123.08719 c 1.5298,-1.08829 1.0726,-8.37137 1.8462,-20.92435 0.9179,-14.35088 3.5678,-35.81252 14.1149,-58.9771 7.2045,-15.81114 17.8695,-31.94695 32.6529,-46.31911 24.90521,-24.21174 60.82071,-41.87071 99.87758,-42.80474 20.18973,-0.51554 40.51743,3.1966 59.17992,10.81969 0,0 3e-5,2e-5 3e-5,2e-5 18.17755,7.40696 34.59169,18.38917 48.32659,31.57952 30.94735,29.72495 46.0382,68.70016 48.42125,102.61843 0,0 -10e-6,3e-5 -10e-6,3e-5 1.84063,25.19746 -2.47329,47.32355 -7.63944,64.16642 -2.66221,8.70787 -5.62615,16.28811 -8.06322,22.34056 1.38184,-3.43179 1.08487,5.69245 13.51276,-20.39348 7.64578,-16.02042 14.93676,-39.1587 15.05236,-67.11646 0,0 0,-2e-5 0,-2e-5 0.10457,-22.30221 -4.74708,-44.90355 -13.90623,-65.97733 -9.17071,-21.1004 -21.45559,-37.98916 -33.71124,-50.91394 -14.67864,-15.48242 -27.58727,-23.79606 -29.92118,-25.92319 -1.07312,-0.97804 -10.08108,-6.86443 -24.22519,-12.38375 -16.42807,-6.39488 -40.25286,-12.35071 -68.73996,-10.56733 -39.97133,2.59409 -80.74869,20.90779 -110.44082,53.58414 -14.9208,16.41929 -25.4791,34.78409 -32.0878,53.12229 -9.136,25.43779 -9.6828,48.26865 -8.2757,63.61284 1.2703,13.47149 3.8363,20.59204 4.0263,20.45686 z m 322.41129,56.15049 c -3.28536,0.0285 -14.89305,24.56592 -43.75789,51.37081 -15.07383,14.00025 -34.70113,28.08098 -58.99536,38.28305 -20.51015,8.61287 -43.79058,14.13516 -68.27809,14.58523 -25.00711,0.46894 -50.56159,-4.16364 -74.3702,-14.00386 -22.68338,-9.35934 -43.23805,-23.14938 -60.50605,-39.82058 -18.0454,-17.42993 -32.0683,-37.57953 -41.9631,-58.40372 0,0 0,-3e-5 0,-3e-5 -11.4426,-24.08314 -17.0342,-48.33767 -18.7312,-70.24697 -2.5107,-32.08017 2.8888,-58.62948 6.3245,-75.01222 0.535,-2.55084 -2.0164,-0.75373 -7.5742,15.0339 -4.9183,13.97092 -10.1598,35.07912 -10.3476,60.86455 0,0 0,2e-5 0,2e-5 -0.1916,25.36382 4.7587,51.77396 15.1044,77.03745 0,0 0,2e-5 0,2e-5 12.0558,29.43996 28.8538,51.40098 43.0224,66.52727 9.3378,9.97159 16.444,15.97222 18.0096,17.76425 1.2848,1.47056 19.6827,16.59325 48.95487,27.78442 22.89654,8.73526 51.58487,14.65759 83.62985,12.59927 0,-1e-5 3e-5,-1e-5 3e-5,-1e-5 25.70746,-1.67055 51.01984,-8.53034 74.15887,-19.98783 0,0 2e-5,-2e-5 2e-5,-2e-5 24.81401,-12.28632 44.79084,-28.59152 59.9641,-45.47881 13.82382,-15.37631 22.75459,-30.2545 28.23852,-41.23293 5.48717,-10.98491 7.4271,-17.66595 7.11653,-17.66326 z M -1124.1307,305.42572 c 2.2019,-0.36249 5.8089,-9.7888 13.5728,-24.98331 9.5553,-18.67762 25.036,-44.91695 51.4151,-70.21325 18.9063,-18.13044 42.504,-34.83751 70.4153,-46.87875 25.4518,-10.97976 53.54395,-17.58116 82.33127,-18.37841 31.34221,-0.88412 62.26834,4.84914 90.27552,15.99598 29.26995,11.62697 54.34718,28.629 74.59113,47.30116 0,0 2e-5,2e-5 2e-5,2e-5 25.92531,23.92397 42.91807,49.53278 54.31973,70.03959 4.94655,8.89622 8.91459,16.96644 12.07758,23.34954 0.55473,1.11948 2.61483,-1.94907 -6.66037,-26.07334 -8.6767,-22.56534 -24.1617,-51.12187 -49.91141,-78.25409 -24.31413,-25.61898 -51.60876,-43.45708 -77.6201,-55.28111 -22.90317,-10.40216 -40.82758,-14.43765 -44.0316,-15.76344 -1.91574,-0.79272 -24.2336,-5.78765 -54.76734,-4.13584 -26.63324,1.45632 -57.86165,7.99809 -89.53399,23.46552 0,0 -2e-5,1e-5 -2e-5,1e-5 -27.91102,13.63026 -52.58102,32.40251 -72.71172,54.539 0,1e-5 0,2e-5 0,3e-5 -25.2846,27.79074 -39.3218,56.41268 -46.8459,77.90011 -5.9254,16.96049 -7.2269,27.42175 -6.916,27.37058 z m 467.13147,-32.88017 c -1.46614,1.54585 1.09581,10.82824 4.35794,26.75672 3.23048,15.77391 7.0954,38.25424 6.91372,64.9377 -0.21822,31.50878 -5.90502,67.66032 -21.46528,103.99017 -10e-6,0 -2e-5,4e-5 -2e-5,4e-5 -13.01014,30.39464 -32.0771,59.01023 -56.35098,83.68352 -24.10859,24.49871 -52.06764,43.81095 -81.45284,57.49422 -33.78379,15.73104 -67.4168,23.0859 -97.39359,25.27196 -35.0973,2.58031 -64.14905,-1.64874 -81.98951,-3.96835 -3.35545,-0.43628 0.46058,2.31814 17.28431,7.01563 15.57833,4.34976 38.27792,8.77132 65.59935,9.00057 36.44407,0.31223 72.30626,-7.16412 104.97574,-20.43842 17.24602,-7.00719 31.40305,-14.70327 42.19099,-21.17098 10.6321,-6.37427 17.4718,-11.16957 19.46315,-12.16654 1.64102,-0.82156 13.83929,-9.95062 28.57401,-25.52657 19.72306,-20.84245 42.46359,-51.69824 57.7325,-92.4892 13.90372,-37.20793 18.74865,-75.68961 16.22389,-111.69954 -1.93574,-27.38061 -8.03181,-50.08688 -13.77299,-66.22006 -5.70727,-16.03791 -10.64183,-24.73294 -10.89039,-24.47087 z m -313.39174,389.477 c -0.6104,-2.84268 -20.39494,-8.32008 -49.20873,-22.10725 -27.8516,-13.33481 -61.7816,-33.96521 -93.9213,-66.82113 0,-10e-6 0,-3e-5 0,-3e-5 -25.3038,-25.86955 -47.4249,-57.29599 -63.3654,-93.24249 -15.7578,-35.53566 -24.3431,-73.12256 -25.9213,-109.94228 -2.0368,-46.95166 6.8773,-88.61001 18.6229,-121.93861 9.064,-25.76293 19.7211,-46.44097 26.2852,-59.86212 1.6261,-3.32487 -1.5551,-0.66998 -9.2924,9.9581 -7.3434,10.08701 -17.4827,25.90931 -26.8811,46.33333 -8.5311,18.52952 -15.7037,39.27839 -20.6367,61.87873 -4.9395,22.63039 -7.0691,44.51354 -7.2044,65.03518 -0.2188,34.2989 5.4582,60.35367 5.6257,64.58182 0.091,2.28304 5.2981,25.35358 19.0063,54.18295 14.9394,31.41886 37.9926,65.88038 71.4807,96.66073 33.8185,31.09472 70.247,50.93575 102.7825,62.66086 31.26004,11.24656 52.69569,12.93732 52.62803,12.62221 z M -1192.0545,191.20298 c 3.6373,0.45734 21.1853,-26.53134 55.7069,-58.78994 26.4244,-24.69372 61.406,-50.537358 105.6724,-69.605214 0,6e-6 10e-5,-1.5e-5 10e-5,-1.5e-5 38.2634,-16.481757 80.21647,-26.339534 123.1229,-27.731128 49.69497,-1.631973 95.75822,7.722449 135.10996,22.515739 46.91951,17.612151 81.13455,41.541801 100.76505,54.293818 2.94071,1.91029 -1.02358,-4.55319 -20.36685,-20.713278 -18.09988,-15.121307 -43.44216,-32.664291 -75.46323,-47.224834 -31.25354,-14.212911 -62.06682,-22.429033 -90.0882,-26.866395 -26.71216,-4.230037 -46.57311,-4.391493 -50.12489,-5.024527 -0.2959,-0.05274 -0.8062,-0.09145 -1.51662,-0.113702 0,10e-7 -10e-6,0 -10e-6,0 -5.10032,-0.157514 -23.12447,0.484419 -46.64622,4.951253 -24.41538,4.636537 -53.37159,13.07195 -83.84319,27.838277 -42.3305,20.513236 -78.012,48.471934 -105.9546,79.272476 -16.1555,17.80199 -27.7845,34.44571 -35.5371,46.9799 -7.6907,12.43416 -11.2278,20.16836 -10.8364,20.21757 z M -670.51115,77.603874 c -0.69388,2.670775 10.38329,13.103021 26.99192,31.815296 22.87971,25.7747 53.32002,64.4669 76.11604,118.02192 17.74921,41.69894 28.82348,88.10655 30.28258,136.38325 1.68431,55.08283 -8.78432,105.90484 -25.06702,149.23762 -17.36971,46.28718 -39.8863,80.56883 -51.88168,100.46407 -2.02033,3.35087 4.55841,-1.4327 19.72177,-20.53351 14.41284,-18.15541 31.27317,-43.41367 45.67422,-75.03484 14.36628,-31.54163 23.10248,-62.54231 28.23397,-90.87366 4.88685,-26.98065 5.74496,-47.11226 6.50463,-50.66488 0.25008,-1.16953 0.43781,-6.34617 0.18052,-14.28087 0,0 0,-10e-6 0,-10e-6 -0.44353,-13.53072 -2.19957,-34.86972 -7.84884,-60.55651 -5.72833,-26.04629 -14.91675,-54.15856 -28.7684,-82.65855 -11.98642,-24.66192 -26.27426,-47.23376 -42.00291,-67.44942 -15.66781,-20.13747 -31.43548,-36.23006 -45.24401,-48.59944 -19.15556,-17.16435 -32.77982,-25.70527 -32.89279,-25.270466 z m 90.74288,536.009896 c -2.95883,-0.68078 -17.34075,15.99685 -42.7102,39.10164 -29.88071,27.21555 -72.10064,59.70865 -128.6699,84.06151 -10e-6,-10e-6 -4e-5,10e-6 -4e-5,10e-6 -46.88661,20.1843 -97.76417,32.03253 -149.46576,33.89601 0,0 -4e-5,-1e-5 -4e-5,-1e-5 -65.16681,2.37232 -121.18299,-10.66074 -164.44119,-25.68083 -21.6934,-7.52319 -39.9105,-15.41535 -52.0963,-20.29696 1.6688,0.6685 4.0925,8.46033 48.8554,29.22935 25.1589,11.67839 54.0728,21.69792 86.0666,28.43625 31.97262,6.73386 60.26028,8.78539 83.10359,9.12368 17.02355,0.24794 28.69952,-0.44255 31.37297,-0.1818 2.0264,0.19765 18.49448,-1.30489 41.36725,-6.54704 23.80725,-5.45632 52.99017,-14.58342 84.35434,-29.72607 25.28389,-12.20725 49.37614,-27.03133 71.75411,-44.12275 22.3249,-17.05089 40.75689,-34.68643 55.61363,-51.1394 23.51544,-26.0348 35.38137,-46.04181 34.89554,-46.15359 z m -531.99933,144.94222 c 0.1787,-2.62226 -11.8387,-10.51496 -30.8688,-24.64514 -19.2274,-14.27662 -44.4381,-34.18684 -70.8301,-61.63186 -35.6573,-37.08059 -68.844,-83.16698 -93.2963,-138.18438 -24.5801,-55.305 -36.3823,-111.00434 -39.3036,-162.60091 -3.0472,-53.46633 3.3573,-96.35906 5.921,-121.11787 0.437,-4.22043 -3.8597,4.25624 -9.8436,29.58139 -5.777,24.44926 -10.6239,56.1246 -10.9407,92.58969 -0.2902,33.32453 3.371,63.69412 8.5303,90.08888 4.9328,25.23649 10.4267,43.03437 10.8883,46.47858 0.2592,1.93326 4.9626,16.01311 13.9922,35.33467 9.1006,19.47345 22.094,43.25036 40.1421,68.60908 18.1572,25.5119 39.2479,49.56172 62.9655,71.33906 27.4359,25.19766 54.2867,43.53847 76.5189,56.38184 21.6116,12.4848 36.0916,18.26434 36.1248,17.77697 z m -259.4882,-493.75251 c 3.4463,-0.72187 10.9416,-29.05152 28.5805,-69.54027 19.1877,-44.03573 48.1402,-95.501427 93.7124,-145.611775 39.5325,-43.4652386 85.1366,-78.745509 133.6442,-105.565428 33.2449,-18.380782 65.0274,-31.217757 93.312,-40.621347 27.96394,-9.29698 51.39475,-14.86268 66.79409,-19.08705 2.84864,-0.78144 -10.56025,-2.805 -50.44069,4.66178 -37.921,7.09991 -78.3862,19.964132 -118.7618,39.548611 -40.0917,19.446608 -70.2949,41.34574 -74.8336,43.569037 -3.1394,1.53781 -34.187,25.4710597 -66.5833,63.665303 -18.5732,21.893505 -36.3502,46.845453 -52.1037,74.701579 -15.7563,27.86122 -27.5696,55.23433 -36.2309,80.90102 -14.2514,42.26632 -17.6692,73.5 -17.0892,73.37854 z"
       id="path917"
       inkscape:connector-curvature="0"
       inkscape:path-effect="#path-effect4629"
       inkscape:original-d="m -911.06749,367.42828 c -0.4235,-3.91902 2.6841,-7.34276 6.5161,-7.75054 4.5478,-0.48393 8.5182,3.1243 8.9845,7.57286 0.5517,5.26424 -3.6273,9.85716 -8.7786,10.38913 -6.0788,0.62777 -11.3792,-4.20059 -11.9849,-10.15112 -0.7127,-7.00321 4.8528,-13.10593 11.7105,-13.79397 8.0498,-0.80766 15.0606,5.59296 15.8407,13.47815 0.9134,9.23273 -6.4314,17.26921 -15.4782,18.15195 -10.5669,1.03107 -19.7598,-7.3793 -20.7568,-17.73658 -1.1618,-12.0691 8.4488,-22.56344 20.282,-23.6874 13.7573,-1.30673 25.7136,9.65329 26.9785,23.14565 1.4672,15.65133 -11.0074,29.24719 -26.3616,30.66815 -17.7727,1.64476 -33.2041,-12.52695 -34.7977,-29.96708 -1.8408,-20.14469 14.2293,-37.6278 34.0024,-39.4122 22.7928,-2.05691 42.5655,16.13346 44.5604,38.51163 2.2949,25.74462 -18.2598,48.06865 -43.5424,50.29529 -29.03,2.55666 -54.1926,-20.63043 -56.6742,-49.14651 -2.8442,-32.68116 23.2696,-60.99735 55.3799,-63.75924 36.7332,-3.15952 68.5481,26.20342 71.6175,62.30348 3.505,41.2239 -29.46,76.91488 -69.9826,80.32132 -46.1939,3.8832 -86.1735,-33.06992 -89.9489,-78.48803 -4.2966,-51.68739 37.066,-96.40565 87.8962,-100.58453 57.7515,-4.7479 107.6992,41.4838 112.3187,98.28947 5.2402,64.4371 -46.3614,120.14861 -109.7563,125.249 -71.799,5.77654 -133.85571,-51.74014 -139.48011,-122.39201 -6.3603,-79.89619 57.66401,-148.92965 136.29901,-155.12461 88.7915,-6.9951 165.4875,64.1806 172.303,151.58711 7.6846,98.55266 -71.3408,183.65499 -168.3743,191.14475 -109.25211,8.43289 -203.56651,-79.19939 -211.78821,-186.78696 -9.2441,-120.96747 87.8148,-225.36608 206.96041,-234.38151 133.7816,-10.1229 249.2077,97.24969 259.0831,229.03927 11.0739,147.78322 -107.5712,275.25588 -253.1786,286.06228 -163.06691,12.10217 -303.68621,-118.85081 -315.49951,-279.54354 -13.2131,-179.73379 131.1652,-334.686461 308.31081,-347.587771 197.8914,-14.4121904 368.4562,144.595871 382.5322,339.668661 15.7055,217.65473 -159.23,405.20847 -373.8179,420.55184 -239.14571,17.09931 -445.16991,-175.16038 -461.87941,-410.97227 -17.351,-244.8649 166.2653,-462.370621 405.77981,-501.45658"
       transform="rotate(80.735272,-322.34739,854.22821)"
       inkscape:transform-center-x="-24.903089"
       inkscape:transform-center-y="-39.756073" />
  </g>
</svg>
